<?xml version="1.0" encoding="utf-8"?>
<svg width="1147" height="1258" viewBox="0 0 1147 1258" xmlns="http://www.w3.org/2000/svg">
<rect id="frame" x="0" y="0" width="1147" height="1258" fill="#f7f7f7" stroke="none" stroke-width="0"/>

<!-- Association ANSWER_EFFECT -->
<g>
	<line x1="201" y1="111" x2="337" y2="111" stroke="#e08214" stroke-width="2"/>
	<text x="247" y="128" fill="#542788" font-family="Verdana" font-size="12">0,N</text>
	<line x1="479" y1="111" x2="337" y2="111" stroke="#e08214" stroke-width="2"/>
	<text x="403" y="128" fill="#542788" font-family="Verdana" font-size="12">0,N</text>
	<g>
		<path d="M384 77 a14 14 90 0 1 14 14 V102 h-122 V91 a14 14 90 0 1 14 -14" fill="#fdb863" stroke="#fdb863" stroke-width="0"/>
		<path d="M398 102 v29 a14 14 90 0 1 -14 14 H290 a14 14 90 0 1 -14 -14 V102 H122" fill="#fee0b6" stroke="#fee0b6" stroke-width="0"/>
		<rect x="276" y="77" width="122" height="68" fill="none" rx="14" stroke="#e08214" stroke-width="2"/>
		<line x1="276" y1="102" x2="398" y2="102" stroke="#e08214" stroke-width="1"/>
		<text x="284" y="94.75" fill="#000" font-family="Verdana" font-size="12">ANSWER_EFFECT</text>
		<text x="283" y="119.8" fill="#000" font-family="Verdana" font-size="12">answer_code</text>
		<text x="283" y="136.8" fill="#000" font-family="Verdana" font-size="12">effect_code</text>
	</g>
</g>

<!-- Association HAS ANSWER -->
<g>
	<line x1="741" y1="111" x2="609" y2="111" stroke="#e08214" stroke-width="2"/>
	<text x="665" y="128" fill="#542788" font-family="Verdana" font-size="12">0,N</text>
	<line x1="479" y1="111" x2="609" y2="111" stroke="#e08214" stroke-width="2"/>
	<text x="533" y="128" fill="#542788" font-family="Verdana" font-size="12">1,1</text>
	<g>
		<path d="M644 86 a14 14 90 0 1 14 14 V111 h-98 V100 a14 14 90 0 1 14 -14" fill="#fdb863" stroke="#fdb863" stroke-width="0"/>
		<path d="M658 111 v11 a14 14 90 0 1 -14 14 H574 a14 14 90 0 1 -14 -14 V111 H98" fill="#fee0b6" stroke="#fee0b6" stroke-width="0"/>
		<rect x="560" y="86" width="98" height="50" fill="none" rx="14" stroke="#e08214" stroke-width="2"/>
		<line x1="560" y1="111" x2="658" y2="111" stroke="#e08214" stroke-width="1"/>
		<text x="567" y="103.75" fill="#000" font-family="Verdana" font-size="12">HAS ANSWER</text>
	</g>
</g>

<!-- Association HAS4 -->
<g>
	<line x1="856" y1="314" x2="856" y2="111" stroke="#e08214" stroke-width="2"/>
	<text x="861" y="170" fill="#542788" font-family="Verdana" font-size="12">0,N</text>
	<line x1="741" y1="111" x2="856" y2="111" stroke="#e08214" stroke-width="2"/>
	<text x="795" y="128" fill="#542788" font-family="Verdana" font-size="12">1,1</text>
	<g>
		<path d="M862 86 a14 14 90 0 1 14 14 V111 h-40 V100 a14 14 90 0 1 14 -14" fill="#fdb863" stroke="#fdb863" stroke-width="0"/>
		<path d="M876 111 v11 a14 14 90 0 1 -14 14 H850 a14 14 90 0 1 -14 -14 V111 H40" fill="#fee0b6" stroke="#fee0b6" stroke-width="0"/>
		<rect x="836" y="86" width="40" height="50" fill="none" rx="14" stroke="#e08214" stroke-width="2"/>
		<line x1="836" y1="111" x2="876" y2="111" stroke="#e08214" stroke-width="1"/>
		<text x="843" y="103.75" fill="#000" font-family="Verdana" font-size="12">HAS</text>
	</g>
</g>

<!-- Association BELONGS TO2 -->
<g>
	<line x1="337" y1="314" x2="201" y2="314" stroke="#e08214" stroke-width="2"/>
	<text x="255" y="306" fill="#542788" font-family="Verdana" font-size="12">1,1</text>
	<line x1="65" y1="314" x2="201" y2="314" stroke="#e08214" stroke-width="2"/>
	<text x="126" y="331" fill="#542788" font-family="Verdana" font-size="12">0,N</text>
	<g>
		<path d="M235 289 a14 14 90 0 1 14 14 V314 h-96 V303 a14 14 90 0 1 14 -14" fill="#fdb863" stroke="#fdb863" stroke-width="0"/>
		<path d="M249 314 v11 a14 14 90 0 1 -14 14 H167 a14 14 90 0 1 -14 -14 V314 H96" fill="#fee0b6" stroke="#fee0b6" stroke-width="0"/>
		<rect x="153" y="289" width="96" height="50" fill="none" rx="14" stroke="#e08214" stroke-width="2"/>
		<line x1="153" y1="314" x2="249" y2="314" stroke="#e08214" stroke-width="1"/>
		<text x="161" y="306.75" fill="#000" font-family="Verdana" font-size="12">BELONGS TO</text>
	</g>
</g>

<!-- Association HERO_ITEM -->
<g>
	<line x1="337" y1="314" x2="479" y2="314" stroke="#e08214" stroke-width="2"/>
	<text x="398" y="306" fill="#542788" font-family="Verdana" font-size="12">0,N</text>
	<line x1="609" y1="314" x2="479" y2="314" stroke="#e08214" stroke-width="2"/>
	<text x="538" y="331" fill="#542788" font-family="Verdana" font-size="12">0,N</text>
	<g>
		<path d="M509 280 a14 14 90 0 1 14 14 V305 h-88 V294 a14 14 90 0 1 14 -14" fill="#fdb863" stroke="#fdb863" stroke-width="0"/>
		<path d="M523 305 v29 a14 14 90 0 1 -14 14 H449 a14 14 90 0 1 -14 -14 V305 H88" fill="#fee0b6" stroke="#fee0b6" stroke-width="0"/>
		<rect x="435" y="280" width="88" height="68" fill="none" rx="14" stroke="#e08214" stroke-width="2"/>
		<line x1="435" y1="305" x2="523" y2="305" stroke="#e08214" stroke-width="1"/>
		<text x="443" y="297.75" fill="#000" font-family="Verdana" font-size="12">HERO_ITEM</text>
		<text x="442" y="322.8" fill="#000" font-family="Verdana" font-size="12">hero_code</text>
		<text x="442" y="339.8" fill="#000" font-family="Verdana" font-size="12">item_code</text>
	</g>
</g>

<!-- Association NPC_ITEM -->
<g>
	<line x1="609" y1="314" x2="741" y2="314" stroke="#e08214" stroke-width="2"/>
	<text x="658" y="331" fill="#542788" font-family="Verdana" font-size="12">0,N</text>
	<line x1="856" y1="314" x2="741" y2="314" stroke="#e08214" stroke-width="2"/>
	<text x="785" y="306" fill="#542788" font-family="Verdana" font-size="12">0,N</text>
	<g>
		<path d="M766 280 a14 14 90 0 1 14 14 V305 h-78 V294 a14 14 90 0 1 14 -14" fill="#fdb863" stroke="#fdb863" stroke-width="0"/>
		<path d="M780 305 v29 a14 14 90 0 1 -14 14 H716 a14 14 90 0 1 -14 -14 V305 H78" fill="#fee0b6" stroke="#fee0b6" stroke-width="0"/>
		<rect x="702" y="280" width="78" height="68" fill="none" rx="14" stroke="#e08214" stroke-width="2"/>
		<line x1="702" y1="305" x2="780" y2="305" stroke="#e08214" stroke-width="1"/>
		<text x="710" y="297.75" fill="#000" font-family="Verdana" font-size="12">NPC_ITEM</text>
		<text x="709" y="322.8" fill="#000" font-family="Verdana" font-size="12">item_code</text>
		<text x="709" y="339.8" fill="#000" font-family="Verdana" font-size="12">npc_code</text>
	</g>
</g>

<!-- Association BELONGS TO8 -->
<g>
	<line x1="1099" y1="314" x2="980" y2="314" stroke="#e08214" stroke-width="2"/>
	<text x="1033" y="331" fill="#542788" font-family="Verdana" font-size="12">0,N</text>
	<line x1="856" y1="314" x2="980" y2="314" stroke="#e08214" stroke-width="2"/>
	<text x="905" y="306" fill="#542788" font-family="Verdana" font-size="12">1,1</text>
	<g>
		<path d="M1014 289 a14 14 90 0 1 14 14 V314 h-96 V303 a14 14 90 0 1 14 -14" fill="#fdb863" stroke="#fdb863" stroke-width="0"/>
		<path d="M1028 314 v11 a14 14 90 0 1 -14 14 H946 a14 14 90 0 1 -14 -14 V314 H96" fill="#fee0b6" stroke="#fee0b6" stroke-width="0"/>
		<rect x="932" y="289" width="96" height="50" fill="none" rx="14" stroke="#e08214" stroke-width="2"/>
		<line x1="932" y1="314" x2="1028" y2="314" stroke="#e08214" stroke-width="1"/>
		<text x="940" y="306.75" fill="#000" font-family="Verdana" font-size="12">BELONGS TO</text>
	</g>
</g>

<!-- Association HAS1 -->
<g>
	<line x1="479" y1="643" x2="337" y2="500" stroke="#e08214" stroke-width="2"/>
	<text x="415" y="615.7" fill="#542788" font-family="Verdana" font-size="12">0,N</text>
	<line x1="337" y1="314" x2="337" y2="500" stroke="#e08214" stroke-width="2"/>
	<text x="342" y="467" fill="#542788" font-family="Verdana" font-size="12">1,1</text>
	<g>
		<path d="M343 475 a14 14 90 0 1 14 14 V500 h-40 V489 a14 14 90 0 1 14 -14" fill="#fdb863" stroke="#fdb863" stroke-width="0"/>
		<path d="M357 500 v11 a14 14 90 0 1 -14 14 H331 a14 14 90 0 1 -14 -14 V500 H40" fill="#fee0b6" stroke="#fee0b6" stroke-width="0"/>
		<rect x="317" y="475" width="40" height="50" fill="none" rx="14" stroke="#e08214" stroke-width="2"/>
		<line x1="317" y1="500" x2="357" y2="500" stroke="#e08214" stroke-width="1"/>
		<text x="324" y="492.75" fill="#000" font-family="Verdana" font-size="12">HAS</text>
	</g>
</g>

<!-- Association HAS PICTURE3 -->
<g>
	<line x1="741" y1="643" x2="479" y2="500" stroke="#e08214" stroke-width="2"/>
	<text x="671" y="632.28" fill="#542788" font-family="Verdana" font-size="12">0,N</text>
	<line x1="337" y1="314" x2="479" y2="500" stroke="#e08214" stroke-width="2"/>
	<text x="398" y="385.09" fill="#542788" font-family="Verdana" font-size="12">0,1</text>
	<g>
		<path d="M514 475 a14 14 90 0 1 14 14 V500 h-98 V489 a14 14 90 0 1 14 -14" fill="#fdb863" stroke="#fdb863" stroke-width="0"/>
		<path d="M528 500 v11 a14 14 90 0 1 -14 14 H444 a14 14 90 0 1 -14 -14 V500 H98" fill="#fee0b6" stroke="#fee0b6" stroke-width="0"/>
		<rect x="430" y="475" width="98" height="50" fill="none" rx="14" stroke="#e08214" stroke-width="2"/>
		<line x1="430" y1="500" x2="528" y2="500" stroke="#e08214" stroke-width="1"/>
		<text x="438" y="492.75" fill="#000" font-family="Verdana" font-size="12">HAS PICTURE</text>
	</g>
</g>

<!-- Association HAS PICTURE4 -->
<g>
	<line x1="741" y1="643" x2="609" y2="500" stroke="#e08214" stroke-width="2"/>
	<text x="672" y="606.75" fill="#542788" font-family="Verdana" font-size="12">0,1</text>
	<line x1="609" y1="314" x2="609" y2="500" stroke="#e08214" stroke-width="2"/>
	<text x="614" y="433" fill="#542788" font-family="Verdana" font-size="12">0,1</text>
	<g>
		<path d="M644 475 a14 14 90 0 1 14 14 V500 h-98 V489 a14 14 90 0 1 14 -14" fill="#fdb863" stroke="#fdb863" stroke-width="0"/>
		<path d="M658 500 v11 a14 14 90 0 1 -14 14 H574 a14 14 90 0 1 -14 -14 V500 H98" fill="#fee0b6" stroke="#fee0b6" stroke-width="0"/>
		<rect x="560" y="475" width="98" height="50" fill="none" rx="14" stroke="#e08214" stroke-width="2"/>
		<line x1="560" y1="500" x2="658" y2="500" stroke="#e08214" stroke-width="1"/>
		<text x="568" y="492.75" fill="#000" font-family="Verdana" font-size="12">HAS PICTURE</text>
	</g>
</g>

<!-- Association HAS PICTURE2 -->
<g>
	<line x1="741" y1="643" x2="741" y2="500" stroke="#e08214" stroke-width="2"/>
	<text x="746" y="584" fill="#542788" font-family="Verdana" font-size="12">0,1</text>
	<line x1="856" y1="314" x2="741" y2="500" stroke="#e08214" stroke-width="2"/>
	<text x="786" y="381.94" fill="#542788" font-family="Verdana" font-size="12">0,1</text>
	<g>
		<path d="M776 475 a14 14 90 0 1 14 14 V500 h-98 V489 a14 14 90 0 1 14 -14" fill="#fdb863" stroke="#fdb863" stroke-width="0"/>
		<path d="M790 500 v11 a14 14 90 0 1 -14 14 H706 a14 14 90 0 1 -14 -14 V500 H98" fill="#fee0b6" stroke="#fee0b6" stroke-width="0"/>
		<rect x="692" y="475" width="98" height="50" fill="none" rx="14" stroke="#e08214" stroke-width="2"/>
		<line x1="692" y1="500" x2="790" y2="500" stroke="#e08214" stroke-width="1"/>
		<text x="700" y="492.75" fill="#000" font-family="Verdana" font-size="12">HAS PICTURE</text>
	</g>
</g>

<!-- Association HERO_EVENT -->
<g>
	<line x1="337" y1="314" x2="201" y2="643" stroke="#e08214" stroke-width="2"/>
	<text x="254" y="444.71" fill="#542788" font-family="Verdana" font-size="12">0,N</text>
	<line x1="609" y1="971" x2="201" y2="643" stroke="#e08214" stroke-width="2"/>
	<text x="524" y="935.38" fill="#542788" font-family="Verdana" font-size="12">0,N</text>
	<g>
		<path d="M236 609 a14 14 90 0 1 14 14 V634 h-98 V623 a14 14 90 0 1 14 -14" fill="#fdb863" stroke="#fdb863" stroke-width="0"/>
		<path d="M250 634 v29 a14 14 90 0 1 -14 14 H166 a14 14 90 0 1 -14 -14 V634 H98" fill="#fee0b6" stroke="#fee0b6" stroke-width="0"/>
		<rect x="152" y="609" width="98" height="68" fill="none" rx="14" stroke="#e08214" stroke-width="2"/>
		<line x1="152" y1="634" x2="250" y2="634" stroke="#e08214" stroke-width="1"/>
		<text x="160" y="626.75" fill="#000" font-family="Verdana" font-size="12">HERO_EVENT</text>
		<text x="159" y="651.8" fill="#000" font-family="Verdana" font-size="12">event_code</text>
		<text x="159" y="668.8" fill="#000" font-family="Verdana" font-size="12">hero_code</text>
	</g>
</g>

<!-- Association HAS PICTURE1 -->
<g>
	<line x1="741" y1="643" x2="609" y2="643" stroke="#e08214" stroke-width="2"/>
	<text x="671" y="660" fill="#542788" font-family="Verdana" font-size="12">0,N</text>
	<line x1="479" y1="643" x2="609" y2="643" stroke="#e08214" stroke-width="2"/>
	<text x="521" y="660" fill="#542788" font-family="Verdana" font-size="12">0,1</text>
	<g>
		<path d="M644 618 a14 14 90 0 1 14 14 V643 h-98 V632 a14 14 90 0 1 14 -14" fill="#fdb863" stroke="#fdb863" stroke-width="0"/>
		<path d="M658 643 v11 a14 14 90 0 1 -14 14 H574 a14 14 90 0 1 -14 -14 V643 H98" fill="#fee0b6" stroke="#fee0b6" stroke-width="0"/>
		<rect x="560" y="618" width="98" height="50" fill="none" rx="14" stroke="#e08214" stroke-width="2"/>
		<line x1="560" y1="643" x2="658" y2="643" stroke="#e08214" stroke-width="1"/>
		<text x="568" y="635.75" fill="#000" font-family="Verdana" font-size="12">HAS PICTURE</text>
	</g>
</g>

<!-- Association EVENT_NPC -->
<g>
	<line x1="856" y1="314" x2="980" y2="643" stroke="#e08214" stroke-width="2"/>
	<text x="905" y="425.69" fill="#542788" font-family="Verdana" font-size="12">0,N</text>
	<line x1="609" y1="971" x2="980" y2="643" stroke="#e08214" stroke-width="2"/>
	<text x="672" y="930.27" fill="#542788" font-family="Verdana" font-size="12">0,N</text>
	<g>
		<path d="M1010 609 a14 14 90 0 1 14 14 V634 h-88 V623 a14 14 90 0 1 14 -14" fill="#fdb863" stroke="#fdb863" stroke-width="0"/>
		<path d="M1024 634 v29 a14 14 90 0 1 -14 14 H950 a14 14 90 0 1 -14 -14 V634 H88" fill="#fee0b6" stroke="#fee0b6" stroke-width="0"/>
		<rect x="936" y="609" width="88" height="68" fill="none" rx="14" stroke="#e08214" stroke-width="2"/>
		<line x1="936" y1="634" x2="1024" y2="634" stroke="#e08214" stroke-width="1"/>
		<text x="944" y="626.75" fill="#000" font-family="Verdana" font-size="12">EVENT_NPC</text>
		<text x="943" y="651.8" fill="#000" font-family="Verdana" font-size="12">event_code</text>
		<text x="943" y="668.8" fill="#000" font-family="Verdana" font-size="12">npc_code</text>
	</g>
</g>

<!-- Association BELONGS TO1 -->
<g>
	<line x1="479" y1="643" x2="479" y2="769" stroke="#e08214" stroke-width="2"/>
	<text x="484" y="728" fill="#542788" font-family="Verdana" font-size="12">0,N</text>
	<line x1="609" y1="769" x2="479" y2="769" stroke="#e08214" stroke-width="2"/>
	<text x="539" y="786" fill="#542788" font-family="Verdana" font-size="12">1,1</text>
	<g>
		<path d="M513 744 a14 14 90 0 1 14 14 V769 h-96 V758 a14 14 90 0 1 14 -14" fill="#fdb863" stroke="#fdb863" stroke-width="0"/>
		<path d="M527 769 v11 a14 14 90 0 1 -14 14 H445 a14 14 90 0 1 -14 -14 V769 H96" fill="#fee0b6" stroke="#fee0b6" stroke-width="0"/>
		<rect x="431" y="744" width="96" height="50" fill="none" rx="14" stroke="#e08214" stroke-width="2"/>
		<line x1="431" y1="769" x2="527" y2="769" stroke="#e08214" stroke-width="1"/>
		<text x="439" y="761.75" fill="#000" font-family="Verdana" font-size="12">BELONGS TO</text>
	</g>
</g>

<!-- Association HAS PICTURE -->
<g>
	<line x1="741" y1="643" x2="741" y2="769" stroke="#e08214" stroke-width="2"/>
	<text x="746" y="711" fill="#542788" font-family="Verdana" font-size="12">0,1</text>
	<line x1="609" y1="971" x2="741" y2="769" stroke="#e08214" stroke-width="2"/>
	<text x="637.68" y="887" fill="#542788" font-family="Verdana" font-size="12">0,1</text>
	<g>
		<path d="M776 744 a14 14 90 0 1 14 14 V769 h-98 V758 a14 14 90 0 1 14 -14" fill="#fdb863" stroke="#fdb863" stroke-width="0"/>
		<path d="M790 769 v11 a14 14 90 0 1 -14 14 H706 a14 14 90 0 1 -14 -14 V769 H98" fill="#fee0b6" stroke="#fee0b6" stroke-width="0"/>
		<rect x="692" y="744" width="98" height="50" fill="none" rx="14" stroke="#e08214" stroke-width="2"/>
		<line x1="692" y1="769" x2="790" y2="769" stroke="#e08214" stroke-width="1"/>
		<text x="700" y="761.75" fill="#000" font-family="Verdana" font-size="12">HAS PICTURE</text>
	</g>
</g>

<!-- Association BELONGS TO4 -->
<g>
	<line x1="609" y1="971" x2="479" y2="1097" stroke="#e08214" stroke-width="2"/>
	<text x="525" y="1026.13" fill="#542788" font-family="Verdana" font-size="12">1,1</text>
	<line x1="337" y1="1198" x2="479" y2="1097" stroke="#e08214" stroke-width="2"/>
	<text x="363.21" y="1156" fill="#542788" font-family="Verdana" font-size="12">0,N</text>
	<g>
		<path d="M513 1072 a14 14 90 0 1 14 14 V1097 h-96 V1086 a14 14 90 0 1 14 -14" fill="#fdb863" stroke="#fdb863" stroke-width="0"/>
		<path d="M527 1097 v11 a14 14 90 0 1 -14 14 H445 a14 14 90 0 1 -14 -14 V1097 H96" fill="#fee0b6" stroke="#fee0b6" stroke-width="0"/>
		<rect x="431" y="1072" width="96" height="50" fill="none" rx="14" stroke="#e08214" stroke-width="2"/>
		<line x1="431" y1="1097" x2="527" y2="1097" stroke="#e08214" stroke-width="1"/>
		<text x="439" y="1089.75" fill="#000" font-family="Verdana" font-size="12">BELONGS TO</text>
	</g>
</g>

<!-- Association HAS5 -->
<g>
	<line x1="609" y1="971" x2="609" y2="1097" stroke="#e08214" stroke-width="2"/>
	<text x="614" y="1064" fill="#542788" font-family="Verdana" font-size="12">0,N</text>
	<line x1="609" y1="1198" x2="609" y2="1097" stroke="#e08214" stroke-width="2"/>
	<text x="614" y="1139" fill="#542788" font-family="Verdana" font-size="12">1,1</text>
	<g>
		<path d="M615 1072 a14 14 90 0 1 14 14 V1097 h-40 V1086 a14 14 90 0 1 14 -14" fill="#fdb863" stroke="#fdb863" stroke-width="0"/>
		<path d="M629 1097 v11 a14 14 90 0 1 -14 14 H603 a14 14 90 0 1 -14 -14 V1097 H40" fill="#fee0b6" stroke="#fee0b6" stroke-width="0"/>
		<rect x="589" y="1072" width="40" height="50" fill="none" rx="14" stroke="#e08214" stroke-width="2"/>
		<line x1="589" y1="1097" x2="629" y2="1097" stroke="#e08214" stroke-width="1"/>
		<text x="596" y="1089.75" fill="#000" font-family="Verdana" font-size="12">HAS</text>
	</g>
</g>

<!-- Association HAS3 -->
<g>
	<line x1="741" y1="1198" x2="741" y2="1097" stroke="#e08214" stroke-width="2"/>
	<text x="746" y="1148" fill="#542788" font-family="Verdana" font-size="12">0,N</text>
	<line x1="609" y1="971" x2="741" y2="1097" stroke="#e08214" stroke-width="2"/>
	<text x="672" y="1025.2" fill="#542788" font-family="Verdana" font-size="12">1,1</text>
	<g>
		<path d="M747 1072 a14 14 90 0 1 14 14 V1097 h-40 V1086 a14 14 90 0 1 14 -14" fill="#fdb863" stroke="#fdb863" stroke-width="0"/>
		<path d="M761 1097 v11 a14 14 90 0 1 -14 14 H735 a14 14 90 0 1 -14 -14 V1097 H40" fill="#fee0b6" stroke="#fee0b6" stroke-width="0"/>
		<rect x="721" y="1072" width="40" height="50" fill="none" rx="14" stroke="#e08214" stroke-width="2"/>
		<line x1="721" y1="1097" x2="761" y2="1097" stroke="#e08214" stroke-width="1"/>
		<text x="728" y="1089.75" fill="#000" font-family="Verdana" font-size="12">HAS</text>
	</g>
</g>

<!-- Association HAS7 -->
<g>
	<line x1="609" y1="1198" x2="479" y2="1198" stroke="#e08214" stroke-width="2"/>
	<text x="525" y="1215" fill="#542788" font-family="Verdana" font-size="12">1,1</text>
	<line x1="337" y1="1198" x2="479" y2="1198" stroke="#e08214" stroke-width="2"/>
	<text x="400" y="1215" fill="#542788" font-family="Verdana" font-size="12">0,N</text>
	<g>
		<path d="M485 1173 a14 14 90 0 1 14 14 V1198 h-40 V1187 a14 14 90 0 1 14 -14" fill="#fdb863" stroke="#fdb863" stroke-width="0"/>
		<path d="M499 1198 v11 a14 14 90 0 1 -14 14 H473 a14 14 90 0 1 -14 -14 V1198 H40" fill="#fee0b6" stroke="#fee0b6" stroke-width="0"/>
		<rect x="459" y="1173" width="40" height="50" fill="none" rx="14" stroke="#e08214" stroke-width="2"/>
		<line x1="459" y1="1198" x2="499" y2="1198" stroke="#e08214" stroke-width="1"/>
		<text x="466" y="1190.75" fill="#000" font-family="Verdana" font-size="12">HAS</text>
	</g>
</g>

<!-- Entity EFFECT -->
<g>
	<g>
		<rect x="160" y="9" width="82" height="25" fill="#b2abd2" stroke="#b2abd2" stroke-width="0" opacity="1"/>
		<rect x="160" y="34" width="82" height="179" fill="#d8daeb" stroke="#d8daeb" stroke-width="0" opacity="1"/>
		<rect x="160" y="9" width="82" height="204" fill="none" stroke="#8073ac" stroke-width="2" opacity="1"/>
		<line x1="160" y1="34" x2="242" y2="34" stroke="#8073ac" stroke-width="1"/>
	</g>
	<text x="178" y="26.75" fill="#000" font-family="Verdana" font-size="12">EFFECT</text>
	<text x="165" y="51.8" fill="#000" font-family="Verdana" font-size="12">code_effect</text>
	<line x1="165" y1="54" x2="236" y2="54" stroke="#000" stroke-width="1"/>
	<text x="165" y="68.8" fill="#000" font-family="Verdana" font-size="12">name</text>
	<text x="165" y="85.8" fill="#000" font-family="Verdana" font-size="12">description</text>
	<text x="165" y="102.8" fill="#000" font-family="Verdana" font-size="12">health</text>
	<text x="165" y="119.8" fill="#000" font-family="Verdana" font-size="12">strength</text>
	<text x="165" y="136.8" fill="#000" font-family="Verdana" font-size="12">intelligence</text>
	<text x="165" y="153.8" fill="#000" font-family="Verdana" font-size="12">dexterity</text>
	<text x="165" y="170.8" fill="#000" font-family="Verdana" font-size="12">defense</text>
	<text x="165" y="187.8" fill="#000" font-family="Verdana" font-size="12">karma</text>
	<text x="165" y="204.8" fill="#000" font-family="Verdana" font-size="12">xp</text>
</g>

<!-- Entity ANSWER -->
<g>
	<g>
		<rect x="430" y="69" width="98" height="25" fill="#b2abd2" stroke="#b2abd2" stroke-width="0" opacity="1"/>
		<rect x="430" y="94" width="98" height="59" fill="#d8daeb" stroke="#d8daeb" stroke-width="0" opacity="1"/>
		<rect x="430" y="69" width="98" height="84" fill="none" stroke="#8073ac" stroke-width="2" opacity="1"/>
		<line x1="430" y1="94" x2="528" y2="94" stroke="#8073ac" stroke-width="1"/>
	</g>
	<text x="452" y="86.75" fill="#000" font-family="Verdana" font-size="12">ANSWER</text>
	<text x="435" y="111.8" fill="#000" font-family="Verdana" font-size="12">code_answer</text>
	<line x1="435" y1="114" x2="515" y2="114" stroke="#000" stroke-width="1"/>
	<text x="435" y="128.8" fill="#000" font-family="Verdana" font-size="12">content</text>
	<text x="435" y="145.8" fill="#000" font-family="Verdana" font-size="12">dialogue_code</text>
</g>

<!-- Entity DIALOGUE -->
<g>
	<g>
		<rect x="692" y="69" width="98" height="25" fill="#b2abd2" stroke="#b2abd2" stroke-width="0" opacity="1"/>
		<rect x="692" y="94" width="98" height="59" fill="#d8daeb" stroke="#d8daeb" stroke-width="0" opacity="1"/>
		<rect x="692" y="69" width="98" height="84" fill="none" stroke="#8073ac" stroke-width="2" opacity="1"/>
		<line x1="692" y1="94" x2="790" y2="94" stroke="#8073ac" stroke-width="1"/>
	</g>
	<text x="709" y="86.75" fill="#000" font-family="Verdana" font-size="12">DIALOGUE</text>
	<text x="697" y="111.8" fill="#000" font-family="Verdana" font-size="12">code_dialogue</text>
	<line x1="697" y1="114" x2="785" y2="114" stroke="#000" stroke-width="1"/>
	<text x="697" y="128.8" fill="#000" font-family="Verdana" font-size="12">content</text>
	<text x="697" y="145.8" fill="#000" font-family="Verdana" font-size="12">npc_code</text>
</g>

<!-- Entity HERO_CLASS -->
<g>
	<g>
		<rect x="9" y="229" width="112" height="25" fill="#b2abd2" stroke="#b2abd2" stroke-width="0" opacity="1"/>
		<rect x="9" y="254" width="112" height="145" fill="#d8daeb" stroke="#d8daeb" stroke-width="0" opacity="1"/>
		<rect x="9" y="229" width="112" height="170" fill="none" stroke="#8073ac" stroke-width="2" opacity="1"/>
		<line x1="9" y1="254" x2="121" y2="254" stroke="#8073ac" stroke-width="1"/>
	</g>
	<text x="24" y="246.75" fill="#000" font-family="Verdana" font-size="12">HERO_CLASS</text>
	<text x="14" y="271.8" fill="#000" font-family="Verdana" font-size="12">code_hero_class</text>
	<line x1="14" y1="274" x2="115" y2="274" stroke="#000" stroke-width="1"/>
	<text x="14" y="288.8" fill="#000" font-family="Verdana" font-size="12">name</text>
	<text x="14" y="305.8" fill="#000" font-family="Verdana" font-size="12">max_health</text>
	<text x="14" y="322.8" fill="#000" font-family="Verdana" font-size="12">health</text>
	<text x="14" y="339.8" fill="#000" font-family="Verdana" font-size="12">strength</text>
	<text x="14" y="356.8" fill="#000" font-family="Verdana" font-size="12">intelligence</text>
	<text x="14" y="373.8" fill="#000" font-family="Verdana" font-size="12">dexterity</text>
	<text x="14" y="390.8" fill="#000" font-family="Verdana" font-size="12">defense</text>
</g>

<!-- Entity HERO -->
<g>
	<g>
		<rect x="281" y="178" width="112" height="25" fill="#b2abd2" stroke="#b2abd2" stroke-width="0" opacity="1"/>
		<rect x="281" y="203" width="112" height="247" fill="#d8daeb" stroke="#d8daeb" stroke-width="0" opacity="1"/>
		<rect x="281" y="178" width="112" height="272" fill="none" stroke="#8073ac" stroke-width="2" opacity="1"/>
		<line x1="281" y1="203" x2="393" y2="203" stroke="#8073ac" stroke-width="1"/>
	</g>
	<text x="320" y="195.75" fill="#000" font-family="Verdana" font-size="12">HERO</text>
	<text x="286" y="220.8" fill="#000" font-family="Verdana" font-size="12">code_hero</text>
	<line x1="286" y1="223" x2="350" y2="223" stroke="#000" stroke-width="1"/>
	<text x="286" y="237.8" fill="#000" font-family="Verdana" font-size="12">name</text>
	<text x="286" y="254.8" fill="#000" font-family="Verdana" font-size="12">max_health</text>
	<text x="286" y="271.8" fill="#000" font-family="Verdana" font-size="12">health</text>
	<text x="286" y="288.8" fill="#000" font-family="Verdana" font-size="12">strength</text>
	<text x="286" y="305.8" fill="#000" font-family="Verdana" font-size="12">intelligence</text>
	<text x="286" y="322.8" fill="#000" font-family="Verdana" font-size="12">dexterity</text>
	<text x="286" y="339.8" fill="#000" font-family="Verdana" font-size="12">defense</text>
	<text x="286" y="356.8" fill="#000" font-family="Verdana" font-size="12">karma</text>
	<text x="286" y="373.8" fill="#000" font-family="Verdana" font-size="12">xp</text>
	<text x="286" y="390.8" fill="#000" font-family="Verdana" font-size="12">progress</text>
	<text x="286" y="407.8" fill="#000" font-family="Verdana" font-size="12">user_code</text>
	<text x="286" y="424.8" fill="#000" font-family="Verdana" font-size="12">hero_class_code</text>
	<text x="286" y="441.8" fill="#000" font-family="Verdana" font-size="12">picture_code</text>
</g>

<!-- Entity ITEM -->
<g>
	<g>
		<rect x="565" y="212" width="88" height="25" fill="#b2abd2" stroke="#b2abd2" stroke-width="0" opacity="1"/>
		<rect x="565" y="237" width="88" height="179" fill="#d8daeb" stroke="#d8daeb" stroke-width="0" opacity="1"/>
		<rect x="565" y="212" width="88" height="204" fill="none" stroke="#8073ac" stroke-width="2" opacity="1"/>
		<line x1="565" y1="237" x2="653" y2="237" stroke="#8073ac" stroke-width="1"/>
	</g>
	<text x="594" y="229.75" fill="#000" font-family="Verdana" font-size="12">ITEM</text>
	<text x="570" y="254.8" fill="#000" font-family="Verdana" font-size="12">code_item</text>
	<line x1="570" y1="257" x2="634" y2="257" stroke="#000" stroke-width="1"/>
	<text x="570" y="271.8" fill="#000" font-family="Verdana" font-size="12">name</text>
	<text x="570" y="288.8" fill="#000" font-family="Verdana" font-size="12">health</text>
	<text x="570" y="305.8" fill="#000" font-family="Verdana" font-size="12">strength</text>
	<text x="570" y="322.8" fill="#000" font-family="Verdana" font-size="12">intelligence</text>
	<text x="570" y="339.8" fill="#000" font-family="Verdana" font-size="12">dexterity</text>
	<text x="570" y="356.8" fill="#000" font-family="Verdana" font-size="12">defense</text>
	<text x="570" y="373.8" fill="#000" font-family="Verdana" font-size="12">karma</text>
	<text x="570" y="390.8" fill="#000" font-family="Verdana" font-size="12">xp</text>
	<text x="570" y="407.8" fill="#000" font-family="Verdana" font-size="12">picture_code</text>
</g>

<!-- Entity NPC -->
<g>
	<g>
		<rect x="812" y="178" width="88" height="25" fill="#b2abd2" stroke="#b2abd2" stroke-width="0" opacity="1"/>
		<rect x="812" y="203" width="88" height="247" fill="#d8daeb" stroke="#d8daeb" stroke-width="0" opacity="1"/>
		<rect x="812" y="178" width="88" height="272" fill="none" stroke="#8073ac" stroke-width="2" opacity="1"/>
		<line x1="812" y1="203" x2="900" y2="203" stroke="#8073ac" stroke-width="1"/>
	</g>
	<text x="843" y="195.75" fill="#000" font-family="Verdana" font-size="12">NPC</text>
	<text x="817" y="220.8" fill="#000" font-family="Verdana" font-size="12">code_npc</text>
	<line x1="817" y1="223" x2="875" y2="223" stroke="#000" stroke-width="1"/>
	<text x="817" y="237.8" fill="#000" font-family="Verdana" font-size="12">name</text>
	<text x="817" y="254.8" fill="#000" font-family="Verdana" font-size="12">description</text>
	<text x="817" y="271.8" fill="#000" font-family="Verdana" font-size="12">health</text>
	<text x="817" y="288.8" fill="#000" font-family="Verdana" font-size="12">strength</text>
	<text x="817" y="305.8" fill="#000" font-family="Verdana" font-size="12">intelligence</text>
	<text x="817" y="322.8" fill="#000" font-family="Verdana" font-size="12">dexterity</text>
	<text x="817" y="339.8" fill="#000" font-family="Verdana" font-size="12">defense</text>
	<text x="817" y="356.8" fill="#000" font-family="Verdana" font-size="12">karma</text>
	<text x="817" y="373.8" fill="#000" font-family="Verdana" font-size="12">is_boss</text>
	<text x="817" y="390.8" fill="#000" font-family="Verdana" font-size="12">hostility</text>
	<text x="817" y="407.8" fill="#000" font-family="Verdana" font-size="12">xp_earned</text>
	<text x="817" y="424.8" fill="#000" font-family="Verdana" font-size="12">race_code</text>
	<text x="817" y="441.8" fill="#000" font-family="Verdana" font-size="12">picture_code</text>
</g>

<!-- Entity RACE -->
<g>
	<g>
		<rect x="1060" y="272" width="78" height="25" fill="#b2abd2" stroke="#b2abd2" stroke-width="0" opacity="1"/>
		<rect x="1060" y="297" width="78" height="59" fill="#d8daeb" stroke="#d8daeb" stroke-width="0" opacity="1"/>
		<rect x="1060" y="272" width="78" height="84" fill="none" stroke="#8073ac" stroke-width="2" opacity="1"/>
		<line x1="1060" y1="297" x2="1138" y2="297" stroke="#8073ac" stroke-width="1"/>
	</g>
	<text x="1082" y="289.75" fill="#000" font-family="Verdana" font-size="12">RACE</text>
	<text x="1065" y="314.8" fill="#000" font-family="Verdana" font-size="12">code_race</text>
	<line x1="1065" y1="317" x2="1128" y2="317" stroke="#000" stroke-width="1"/>
	<text x="1065" y="331.8" fill="#000" font-family="Verdana" font-size="12">name</text>
	<text x="1065" y="348.8" fill="#000" font-family="Verdana" font-size="12">description</text>
</g>

<!-- Entity USER -->
<g>
	<g>
		<rect x="442" y="575" width="74" height="25" fill="#b2abd2" stroke="#b2abd2" stroke-width="0" opacity="1"/>
		<rect x="442" y="600" width="74" height="111" fill="#d8daeb" stroke="#d8daeb" stroke-width="0" opacity="1"/>
		<rect x="442" y="575" width="74" height="136" fill="none" stroke="#8073ac" stroke-width="2" opacity="1"/>
		<line x1="442" y1="600" x2="516" y2="600" stroke="#8073ac" stroke-width="1"/>
	</g>
	<text x="462" y="592.75" fill="#000" font-family="Verdana" font-size="12">USER</text>
	<text x="447" y="617.8" fill="#000" font-family="Verdana" font-size="12">code_user</text>
	<line x1="447" y1="620" x2="510" y2="620" stroke="#000" stroke-width="1"/>
	<text x="447" y="634.8" fill="#000" font-family="Verdana" font-size="12">email</text>
	<text x="447" y="651.8" fill="#000" font-family="Verdana" font-size="12">password</text>
	<text x="447" y="668.8" fill="#000" font-family="Verdana" font-size="12">role</text>
	<text x="447" y="685.8" fill="#000" font-family="Verdana" font-size="12">pseudo</text>
	<text x="447" y="702.8" fill="#000" font-family="Verdana" font-size="12">avatar</text>
</g>

<!-- Entity PICTURE -->
<g>
	<g>
		<rect x="698" y="592" width="86" height="25" fill="#b2abd2" stroke="#b2abd2" stroke-width="0" opacity="1"/>
		<rect x="698" y="617" width="86" height="77" fill="#d8daeb" stroke="#d8daeb" stroke-width="0" opacity="1"/>
		<rect x="698" y="592" width="86" height="102" fill="none" stroke="#8073ac" stroke-width="2" opacity="1"/>
		<line x1="698" y1="617" x2="784" y2="617" stroke="#8073ac" stroke-width="1"/>
	</g>
	<text x="714" y="609.75" fill="#000" font-family="Verdana" font-size="12">PICTURE</text>
	<text x="703" y="634.8" fill="#000" font-family="Verdana" font-size="12">code picture</text>
	<line x1="703" y1="637" x2="778" y2="637" stroke="#000" stroke-width="1"/>
	<text x="703" y="651.8" fill="#000" font-family="Verdana" font-size="12">name</text>
	<text x="703" y="668.8" fill="#000" font-family="Verdana" font-size="12">base64</text>
	<text x="703" y="685.8" fill="#000" font-family="Verdana" font-size="12">path</text>
</g>

<!-- Entity REVIEW -->
<g>
	<g>
		<rect x="565" y="693" width="88" height="25" fill="#b2abd2" stroke="#b2abd2" stroke-width="0" opacity="1"/>
		<rect x="565" y="718" width="88" height="127" fill="#d8daeb" stroke="#d8daeb" stroke-width="0" opacity="1"/>
		<rect x="565" y="693" width="88" height="152" fill="none" stroke="#8073ac" stroke-width="2" opacity="1"/>
		<line x1="565" y1="718" x2="653" y2="718" stroke="#8073ac" stroke-width="1"/>
	</g>
	<text x="584" y="710.75" fill="#000" font-family="Verdana" font-size="12">REVIEW</text>
	<text x="570" y="735.8" fill="#000" font-family="Verdana" font-size="12">code_review</text>
	<line x1="570" y1="738" x2="647" y2="738" stroke="#000" stroke-width="1"/>
	<text x="570" y="752.8" fill="#000" font-family="Verdana" font-size="12">title</text>
	<text x="570" y="769.8" fill="#000" font-family="Verdana" font-size="12">content</text>
	<text x="570" y="786.8" fill="#000" font-family="Verdana" font-size="12">rating</text>
	<text x="570" y="803.8" fill="#000" font-family="Verdana" font-size="12">createdAt</text>
	<text x="570" y="820.8" fill="#000" font-family="Verdana" font-size="12">updatedAt</text>
	<text x="570" y="837.8" fill="#000" font-family="Verdana" font-size="12">user_code</text>
</g>

<!-- Entity EVENT -->
<g>
	<g>
		<rect x="551" y="895" width="116" height="25" fill="#b2abd2" stroke="#b2abd2" stroke-width="0" opacity="1"/>
		<rect x="551" y="920" width="116" height="127" fill="#d8daeb" stroke="#d8daeb" stroke-width="0" opacity="1"/>
		<rect x="551" y="895" width="116" height="152" fill="none" stroke="#8073ac" stroke-width="2" opacity="1"/>
		<line x1="551" y1="920" x2="667" y2="920" stroke="#8073ac" stroke-width="1"/>
	</g>
	<text x="589" y="912.75" fill="#000" font-family="Verdana" font-size="12">EVENT</text>
	<text x="556" y="937.8" fill="#000" font-family="Verdana" font-size="12">code_event</text>
	<line x1="556" y1="940" x2="627" y2="940" stroke="#000" stroke-width="1"/>
	<text x="556" y="954.8" fill="#000" font-family="Verdana" font-size="12">title</text>
	<text x="556" y="971.8" fill="#000" font-family="Verdana" font-size="12">description</text>
	<text x="556" y="988.8" fill="#000" font-family="Verdana" font-size="12">opening</text>
	<text x="556" y="1005.8" fill="#000" font-family="Verdana" font-size="12">event_type_code</text>
	<text x="556" y="1022.8" fill="#000" font-family="Verdana" font-size="12">biome_code</text>
	<text x="556" y="1039.8" fill="#000" font-family="Verdana" font-size="12">picture_code</text>
</g>

<!-- Entity EVENT_TYPE -->
<g>
	<g>
		<rect x="279" y="1164" width="116" height="25" fill="#b2abd2" stroke="#b2abd2" stroke-width="0" opacity="1"/>
		<rect x="279" y="1189" width="116" height="43" fill="#d8daeb" stroke="#d8daeb" stroke-width="0" opacity="1"/>
		<rect x="279" y="1164" width="116" height="68" fill="none" stroke="#8073ac" stroke-width="2" opacity="1"/>
		<line x1="279" y1="1189" x2="395" y2="1189" stroke="#8073ac" stroke-width="1"/>
	</g>
	<text x="298" y="1181.75" fill="#000" font-family="Verdana" font-size="12">EVENT_TYPE</text>
	<text x="284" y="1206.8" fill="#000" font-family="Verdana" font-size="12">code_event_type</text>
	<line x1="284" y1="1209" x2="389" y2="1209" stroke="#000" stroke-width="1"/>
	<text x="284" y="1223.8" fill="#000" font-family="Verdana" font-size="12">name</text>
</g>

<!-- Entity ENDING -->
<g>
	<g>
		<rect x="551" y="1147" width="116" height="25" fill="#b2abd2" stroke="#b2abd2" stroke-width="0" opacity="1"/>
		<rect x="551" y="1172" width="116" height="77" fill="#d8daeb" stroke="#d8daeb" stroke-width="0" opacity="1"/>
		<rect x="551" y="1147" width="116" height="102" fill="none" stroke="#8073ac" stroke-width="2" opacity="1"/>
		<line x1="551" y1="1172" x2="667" y2="1172" stroke="#8073ac" stroke-width="1"/>
	</g>
	<text x="584" y="1164.75" fill="#000" font-family="Verdana" font-size="12">ENDING</text>
	<text x="556" y="1189.8" fill="#000" font-family="Verdana" font-size="12">code_ending</text>
	<line x1="556" y1="1192" x2="633" y2="1192" stroke="#000" stroke-width="1"/>
	<text x="556" y="1206.8" fill="#000" font-family="Verdana" font-size="12">content</text>
	<text x="556" y="1223.8" fill="#000" font-family="Verdana" font-size="12">event_code</text>
	<text x="556" y="1240.8" fill="#000" font-family="Verdana" font-size="12">event_type_code</text>
</g>

<!-- Entity BIOME -->
<g>
	<g>
		<rect x="699" y="1156" width="84" height="25" fill="#b2abd2" stroke="#b2abd2" stroke-width="0" opacity="1"/>
		<rect x="699" y="1181" width="84" height="59" fill="#d8daeb" stroke="#d8daeb" stroke-width="0" opacity="1"/>
		<rect x="699" y="1156" width="84" height="84" fill="none" stroke="#8073ac" stroke-width="2" opacity="1"/>
		<line x1="699" y1="1181" x2="783" y2="1181" stroke="#8073ac" stroke-width="1"/>
	</g>
	<text x="721" y="1173.75" fill="#000" font-family="Verdana" font-size="12">BIOME</text>
	<text x="704" y="1198.8" fill="#000" font-family="Verdana" font-size="12">code_biome</text>
	<line x1="704" y1="1201" x2="778" y2="1201" stroke="#000" stroke-width="1"/>
	<text x="704" y="1215.8" fill="#000" font-family="Verdana" font-size="12">name</text>
	<text x="704" y="1232.8" fill="#000" font-family="Verdana" font-size="12">difficulty</text>
</g>
</svg>