<?xml version="1.0" encoding="utf-8"?>
<svg width="1663" height="1236" viewBox="0 0 1663 1236" xmlns="http://www.w3.org/2000/svg">
<rect id="frame" x="0" y="0" width="1663" height="1236" fill="#ffffbf" stroke="none" stroke-width="0"/>

<!-- Association BELONGS TO2 -->
<g>
	<line x1="655" y1="415" x2="655" y2="229" stroke="#74add1" stroke-width="2"/>
	<text x="660" y="271" fill="#d73027" font-family="Verdana" font-size="12">1,1</text>
	<line x1="655" y1="94" x2="655" y2="229" stroke="#74add1" stroke-width="2"/>
	<text x="660" y="196" fill="#d73027" font-family="Verdana" font-size="12">0,N</text>
	<g>
		<path d="M689 204 a14 14 90 0 1 14 14 V229 h-96 V218 a14 14 90 0 1 14 -14" fill="#abd9e9" stroke="#abd9e9" stroke-width="0"/>
		<path d="M703 229 v11 a14 14 90 0 1 -14 14 H621 a14 14 90 0 1 -14 -14 V229 H96" fill="#e0f3f8" stroke="#e0f3f8" stroke-width="0"/>
		<rect x="607" y="204" width="96" height="50" fill="none" rx="14" stroke="#74add1" stroke-width="2"/>
		<line x1="607" y1="229" x2="703" y2="229" stroke="#74add1" stroke-width="1"/>
		<text x="615" y="221.75" fill="#000" font-family="Verdana" font-size="12">BELONGS TO</text>
	</g>
</g>

<!-- Association BELONGS TO1 -->
<g>
	<line x1="411" y1="415" x2="273" y2="415" stroke="#74add1" stroke-width="2"/>
	<text x="347" y="432" fill="#d73027" font-family="Verdana" font-size="12">0,N</text>
	<line x1="149" y1="415" x2="273" y2="415" stroke="#74add1" stroke-width="2"/>
	<text x="198" y="432" fill="#d73027" font-family="Verdana" font-size="12">1,1</text>
	<g>
		<path d="M307 390 a14 14 90 0 1 14 14 V415 h-96 V404 a14 14 90 0 1 14 -14" fill="#abd9e9" stroke="#abd9e9" stroke-width="0"/>
		<path d="M321 415 v11 a14 14 90 0 1 -14 14 H239 a14 14 90 0 1 -14 -14 V415 H96" fill="#e0f3f8" stroke="#e0f3f8" stroke-width="0"/>
		<rect x="225" y="390" width="96" height="50" fill="none" rx="14" stroke="#74add1" stroke-width="2"/>
		<line x1="225" y1="415" x2="321" y2="415" stroke="#74add1" stroke-width="1"/>
		<text x="233" y="407.75" fill="#000" font-family="Verdana" font-size="12">BELONGS TO</text>
	</g>
</g>

<!-- Association HAS1 -->
<g>
	<line x1="411" y1="415" x2="521" y2="415" stroke="#74add1" stroke-width="2"/>
	<text x="453" y="432" fill="#d73027" font-family="Verdana" font-size="12">0,N</text>
	<line x1="655" y1="415" x2="521" y2="415" stroke="#74add1" stroke-width="2"/>
	<text x="573" y="407" fill="#d73027" font-family="Verdana" font-size="12">1,1</text>
	<g>
		<path d="M527 390 a14 14 90 0 1 14 14 V415 h-40 V404 a14 14 90 0 1 14 -14" fill="#abd9e9" stroke="#abd9e9" stroke-width="0"/>
		<path d="M541 415 v11 a14 14 90 0 1 -14 14 H515 a14 14 90 0 1 -14 -14 V415 H40" fill="#e0f3f8" stroke="#e0f3f8" stroke-width="0"/>
		<rect x="501" y="390" width="40" height="50" fill="none" rx="14" stroke="#74add1" stroke-width="2"/>
		<line x1="501" y1="415" x2="541" y2="415" stroke="#74add1" stroke-width="1"/>
		<text x="508" y="407.75" fill="#000" font-family="Verdana" font-size="12">HAS</text>
	</g>
</g>

<!-- Association HERO_ITEM -->
<g>
	<line x1="655" y1="415" x2="841" y2="415" stroke="#74add1" stroke-width="2"/>
	<text x="716" y="432" fill="#d73027" font-family="Verdana" font-size="12">0,N</text>
	<line x1="957" y1="415" x2="841" y2="415" stroke="#74add1" stroke-width="2"/>
	<text x="890" y="432" fill="#d73027" font-family="Verdana" font-size="12">0,N</text>
	<g>
		<path d="M871 381 a14 14 90 0 1 14 14 V406 h-88 V395 a14 14 90 0 1 14 -14" fill="#abd9e9" stroke="#abd9e9" stroke-width="0"/>
		<path d="M885 406 v29 a14 14 90 0 1 -14 14 H811 a14 14 90 0 1 -14 -14 V406 H88" fill="#e0f3f8" stroke="#e0f3f8" stroke-width="0"/>
		<rect x="797" y="381" width="88" height="68" fill="none" rx="14" stroke="#74add1" stroke-width="2"/>
		<line x1="797" y1="406" x2="885" y2="406" stroke="#74add1" stroke-width="1"/>
		<text x="805" y="398.75" fill="#000" font-family="Verdana" font-size="12">HERO_ITEM</text>
		<text x="804" y="423.8" fill="#000" font-family="Verdana" font-size="12">hero_code</text>
		<text x="804" y="440.8" fill="#000" font-family="Verdana" font-size="12">item_code</text>
	</g>
</g>

<!-- Association HERO_EVENT -->
<g>
	<line x1="655" y1="415" x2="521" y2="610" stroke="#74add1" stroke-width="2"/>
	<text x="572" y="493.74" fill="#d73027" font-family="Verdana" font-size="12">0,N</text>
	<line x1="521" y1="846" x2="521" y2="610" stroke="#74add1" stroke-width="2"/>
	<text x="526" y="762" fill="#d73027" font-family="Verdana" font-size="12">0,N</text>
	<g>
		<path d="M556 576 a14 14 90 0 1 14 14 V601 h-98 V590 a14 14 90 0 1 14 -14" fill="#abd9e9" stroke="#abd9e9" stroke-width="0"/>
		<path d="M570 601 v29 a14 14 90 0 1 -14 14 H486 a14 14 90 0 1 -14 -14 V601 H98" fill="#e0f3f8" stroke="#e0f3f8" stroke-width="0"/>
		<rect x="472" y="576" width="98" height="68" fill="none" rx="14" stroke="#74add1" stroke-width="2"/>
		<line x1="472" y1="601" x2="570" y2="601" stroke="#74add1" stroke-width="1"/>
		<text x="480" y="593.75" fill="#000" font-family="Verdana" font-size="12">HERO_EVENT</text>
		<text x="479" y="618.8" fill="#000" font-family="Verdana" font-size="12">event_code</text>
		<text x="479" y="635.8" fill="#000" font-family="Verdana" font-size="12">hero_code</text>
	</g>
</g>

<!-- Association NPC_ITEM -->
<g>
	<line x1="957" y1="415" x2="957" y2="610" stroke="#74add1" stroke-width="2"/>
	<text x="962" y="525" fill="#d73027" font-family="Verdana" font-size="12">0,N</text>
	<line x1="957" y1="846" x2="957" y2="610" stroke="#74add1" stroke-width="2"/>
	<text x="962" y="711" fill="#d73027" font-family="Verdana" font-size="12">0,N</text>
	<g>
		<path d="M982 576 a14 14 90 0 1 14 14 V601 h-78 V590 a14 14 90 0 1 14 -14" fill="#abd9e9" stroke="#abd9e9" stroke-width="0"/>
		<path d="M996 601 v29 a14 14 90 0 1 -14 14 H932 a14 14 90 0 1 -14 -14 V601 H78" fill="#e0f3f8" stroke="#e0f3f8" stroke-width="0"/>
		<rect x="918" y="576" width="78" height="68" fill="none" rx="14" stroke="#74add1" stroke-width="2"/>
		<line x1="918" y1="601" x2="996" y2="601" stroke="#74add1" stroke-width="1"/>
		<text x="926" y="593.75" fill="#000" font-family="Verdana" font-size="12">NPC_ITEM</text>
		<text x="925" y="618.8" fill="#000" font-family="Verdana" font-size="12">item_code</text>
		<text x="925" y="635.8" fill="#000" font-family="Verdana" font-size="12">npc_code</text>
	</g>
</g>

<!-- Association HAS3 -->
<g>
	<line x1="273" y1="846" x2="411" y2="846" stroke="#74add1" stroke-width="2"/>
	<text x="320" y="863" fill="#d73027" font-family="Verdana" font-size="12">0,N</text>
	<line x1="521" y1="846" x2="411" y2="846" stroke="#74add1" stroke-width="2"/>
	<text x="437" y="838" fill="#d73027" font-family="Verdana" font-size="12">1,1</text>
	<g>
		<path d="M417 821 a14 14 90 0 1 14 14 V846 h-40 V835 a14 14 90 0 1 14 -14" fill="#abd9e9" stroke="#abd9e9" stroke-width="0"/>
		<path d="M431 846 v11 a14 14 90 0 1 -14 14 H405 a14 14 90 0 1 -14 -14 V846 H40" fill="#e0f3f8" stroke="#e0f3f8" stroke-width="0"/>
		<rect x="391" y="821" width="40" height="50" fill="none" rx="14" stroke="#74add1" stroke-width="2"/>
		<line x1="391" y1="846" x2="431" y2="846" stroke="#74add1" stroke-width="1"/>
		<text x="398" y="838.75" fill="#000" font-family="Verdana" font-size="12">HAS</text>
	</g>
</g>

<!-- Association EVENT_NPC -->
<g>
	<line x1="957" y1="846" x2="655" y2="846" stroke="#74add1" stroke-width="2"/>
	<text x="890" y="863" fill="#d73027" font-family="Verdana" font-size="12">0,N</text>
	<line x1="521" y1="846" x2="655" y2="846" stroke="#74add1" stroke-width="2"/>
	<text x="584" y="838" fill="#d73027" font-family="Verdana" font-size="12">0,N</text>
	<g>
		<path d="M685 812 a14 14 90 0 1 14 14 V837 h-88 V826 a14 14 90 0 1 14 -14" fill="#abd9e9" stroke="#abd9e9" stroke-width="0"/>
		<path d="M699 837 v29 a14 14 90 0 1 -14 14 H625 a14 14 90 0 1 -14 -14 V837 H88" fill="#e0f3f8" stroke="#e0f3f8" stroke-width="0"/>
		<rect x="611" y="812" width="88" height="68" fill="none" rx="14" stroke="#74add1" stroke-width="2"/>
		<line x1="611" y1="837" x2="699" y2="837" stroke="#74add1" stroke-width="1"/>
		<text x="619" y="829.75" fill="#000" font-family="Verdana" font-size="12">EVENT_NPC</text>
		<text x="618" y="854.8" fill="#000" font-family="Verdana" font-size="12">event_code</text>
		<text x="618" y="871.8" fill="#000" font-family="Verdana" font-size="12">npc_code</text>
	</g>
</g>

<!-- Association BELONGS TO8 -->
<g>
	<line x1="1207" y1="846" x2="1077" y2="846" stroke="#74add1" stroke-width="2"/>
	<text x="1141" y="863" fill="#d73027" font-family="Verdana" font-size="12">0,N</text>
	<line x1="957" y1="846" x2="1077" y2="846" stroke="#74add1" stroke-width="2"/>
	<text x="1002" y="863" fill="#d73027" font-family="Verdana" font-size="12">1,1</text>
	<g>
		<path d="M1111 821 a14 14 90 0 1 14 14 V846 h-96 V835 a14 14 90 0 1 14 -14" fill="#abd9e9" stroke="#abd9e9" stroke-width="0"/>
		<path d="M1125 846 v11 a14 14 90 0 1 -14 14 H1043 a14 14 90 0 1 -14 -14 V846 H96" fill="#e0f3f8" stroke="#e0f3f8" stroke-width="0"/>
		<rect x="1029" y="821" width="96" height="50" fill="none" rx="14" stroke="#74add1" stroke-width="2"/>
		<line x1="1029" y1="846" x2="1125" y2="846" stroke="#74add1" stroke-width="1"/>
		<text x="1037" y="838.75" fill="#000" font-family="Verdana" font-size="12">BELONGS TO</text>
	</g>
</g>

<!-- Association BELONGS TO4 -->
<g>
	<line x1="521" y1="846" x2="273" y2="1125" stroke="#74add1" stroke-width="2"/>
	<text x="437" y="909.73" fill="#d73027" font-family="Verdana" font-size="12">1,1</text>
	<line x1="411" y1="1125" x2="273" y2="1125" stroke="#74add1" stroke-width="2"/>
	<text x="326" y="1142" fill="#d73027" font-family="Verdana" font-size="12">0,N</text>
	<g>
		<path d="M307 1100 a14 14 90 0 1 14 14 V1125 h-96 V1114 a14 14 90 0 1 14 -14" fill="#abd9e9" stroke="#abd9e9" stroke-width="0"/>
		<path d="M321 1125 v11 a14 14 90 0 1 -14 14 H239 a14 14 90 0 1 -14 -14 V1125 H96" fill="#e0f3f8" stroke="#e0f3f8" stroke-width="0"/>
		<rect x="225" y="1100" width="96" height="50" fill="none" rx="14" stroke="#74add1" stroke-width="2"/>
		<line x1="225" y1="1125" x2="321" y2="1125" stroke="#74add1" stroke-width="1"/>
		<text x="233" y="1117.75" fill="#000" font-family="Verdana" font-size="12">BELONGS TO</text>
	</g>
</g>

<!-- Association HAS7 -->
<g>
	<line x1="655" y1="1125" x2="521" y2="1125" stroke="#74add1" stroke-width="2"/>
	<text x="571" y="1142" fill="#d73027" font-family="Verdana" font-size="12">1,1</text>
	<line x1="411" y1="1125" x2="521" y2="1125" stroke="#74add1" stroke-width="2"/>
	<text x="474" y="1142" fill="#d73027" font-family="Verdana" font-size="12">0,N</text>
	<g>
		<path d="M527 1100 a14 14 90 0 1 14 14 V1125 h-40 V1114 a14 14 90 0 1 14 -14" fill="#abd9e9" stroke="#abd9e9" stroke-width="0"/>
		<path d="M541 1125 v11 a14 14 90 0 1 -14 14 H515 a14 14 90 0 1 -14 -14 V1125 H40" fill="#e0f3f8" stroke="#e0f3f8" stroke-width="0"/>
		<rect x="501" y="1100" width="40" height="50" fill="none" rx="14" stroke="#74add1" stroke-width="2"/>
		<line x1="501" y1="1125" x2="541" y2="1125" stroke="#74add1" stroke-width="1"/>
		<text x="508" y="1117.75" fill="#000" font-family="Verdana" font-size="12">HAS</text>
	</g>
</g>

<!-- Association HAS5 -->
<g>
	<line x1="521" y1="846" x2="765" y2="1125" stroke="#74add1" stroke-width="2"/>
	<text x="584" y="910.72" fill="#d73027" font-family="Verdana" font-size="12">0,N</text>
	<line x1="655" y1="1125" x2="765" y2="1125" stroke="#74add1" stroke-width="2"/>
	<text x="718" y="1142" fill="#d73027" font-family="Verdana" font-size="12">1,1</text>
	<g>
		<path d="M771 1100 a14 14 90 0 1 14 14 V1125 h-40 V1114 a14 14 90 0 1 14 -14" fill="#abd9e9" stroke="#abd9e9" stroke-width="0"/>
		<path d="M785 1125 v11 a14 14 90 0 1 -14 14 H759 a14 14 90 0 1 -14 -14 V1125 H40" fill="#e0f3f8" stroke="#e0f3f8" stroke-width="0"/>
		<rect x="745" y="1100" width="40" height="50" fill="none" rx="14" stroke="#74add1" stroke-width="2"/>
		<line x1="745" y1="1125" x2="785" y2="1125" stroke="#74add1" stroke-width="1"/>
		<text x="752" y="1117.75" fill="#000" font-family="Verdana" font-size="12">HAS</text>
	</g>
</g>

<!-- Association HAS4 -->
<g>
	<line x1="957" y1="846" x2="957" y2="1125" stroke="#74add1" stroke-width="2"/>
	<text x="962" y="990" fill="#d73027" font-family="Verdana" font-size="12">0,N</text>
	<line x1="1077" y1="1125" x2="957" y2="1125" stroke="#74add1" stroke-width="2"/>
	<text x="1002" y="1142" fill="#d73027" font-family="Verdana" font-size="12">1,1</text>
	<g>
		<path d="M963 1100 a14 14 90 0 1 14 14 V1125 h-40 V1114 a14 14 90 0 1 14 -14" fill="#abd9e9" stroke="#abd9e9" stroke-width="0"/>
		<path d="M977 1125 v11 a14 14 90 0 1 -14 14 H951 a14 14 90 0 1 -14 -14 V1125 H40" fill="#e0f3f8" stroke="#e0f3f8" stroke-width="0"/>
		<rect x="937" y="1100" width="40" height="50" fill="none" rx="14" stroke="#74add1" stroke-width="2"/>
		<line x1="937" y1="1125" x2="977" y2="1125" stroke="#74add1" stroke-width="1"/>
		<text x="944" y="1117.75" fill="#000" font-family="Verdana" font-size="12">HAS</text>
	</g>
</g>

<!-- Association HAS ANSWER -->
<g>
	<line x1="1077" y1="1125" x2="1207" y2="1125" stroke="#74add1" stroke-width="2"/>
	<text x="1131" y="1142" fill="#d73027" font-family="Verdana" font-size="12">0,N</text>
	<line x1="1337" y1="1125" x2="1207" y2="1125" stroke="#74add1" stroke-width="2"/>
	<text x="1262" y="1142" fill="#d73027" font-family="Verdana" font-size="12">1,1</text>
	<g>
		<path d="M1242 1100 a14 14 90 0 1 14 14 V1125 h-98 V1114 a14 14 90 0 1 14 -14" fill="#abd9e9" stroke="#abd9e9" stroke-width="0"/>
		<path d="M1256 1125 v11 a14 14 90 0 1 -14 14 H1172 a14 14 90 0 1 -14 -14 V1125 H98" fill="#e0f3f8" stroke="#e0f3f8" stroke-width="0"/>
		<rect x="1158" y="1100" width="98" height="50" fill="none" rx="14" stroke="#74add1" stroke-width="2"/>
		<line x1="1158" y1="1125" x2="1256" y2="1125" stroke="#74add1" stroke-width="1"/>
		<text x="1165" y="1117.75" fill="#000" font-family="Verdana" font-size="12">HAS ANSWER</text>
	</g>
</g>

<!-- Association ANSWER_EFFECT -->
<g>
	<line x1="1613" y1="1125" x2="1479" y2="1125" stroke="#74add1" stroke-width="2"/>
	<text x="1545" y="1142" fill="#d73027" font-family="Verdana" font-size="12">0,N</text>
	<line x1="1337" y1="1125" x2="1479" y2="1125" stroke="#74add1" stroke-width="2"/>
	<text x="1391" y="1142" fill="#d73027" font-family="Verdana" font-size="12">0,N</text>
	<g>
		<path d="M1526 1091 a14 14 90 0 1 14 14 V1116 h-122 V1105 a14 14 90 0 1 14 -14" fill="#abd9e9" stroke="#abd9e9" stroke-width="0"/>
		<path d="M1540 1116 v29 a14 14 90 0 1 -14 14 H1432 a14 14 90 0 1 -14 -14 V1116 H122" fill="#e0f3f8" stroke="#e0f3f8" stroke-width="0"/>
		<rect x="1418" y="1091" width="122" height="68" fill="none" rx="14" stroke="#74add1" stroke-width="2"/>
		<line x1="1418" y1="1116" x2="1540" y2="1116" stroke="#74add1" stroke-width="1"/>
		<text x="1426" y="1108.75" fill="#000" font-family="Verdana" font-size="12">ANSWER_EFFECT</text>
		<text x="1425" y="1133.8" fill="#000" font-family="Verdana" font-size="12">answer_code</text>
		<text x="1425" y="1150.8" fill="#000" font-family="Verdana" font-size="12">effect_code</text>
	</g>
</g>

<!-- Entity HERO_CLASS -->
<g>
	<g>
		<rect x="599" y="9" width="112" height="25" fill="#fdae61" stroke="#fdae61" stroke-width="0" opacity="1"/>
		<rect x="599" y="34" width="112" height="145" fill="#fee090" stroke="#fee090" stroke-width="0" opacity="1"/>
		<rect x="599" y="9" width="112" height="170" fill="none" stroke="#f46d43" stroke-width="2" opacity="1"/>
		<line x1="599" y1="34" x2="711" y2="34" stroke="#f46d43" stroke-width="1"/>
	</g>
	<text x="614" y="26.75" fill="#000" font-family="Verdana" font-size="12">HERO_CLASS</text>
	<text x="604" y="51.8" fill="#000" font-family="Verdana" font-size="12">code_hero_class</text>
	<line x1="604" y1="54" x2="705" y2="54" stroke="#000" stroke-width="1"/>
	<text x="604" y="68.8" fill="#000" font-family="Verdana" font-size="12">name</text>
	<text x="604" y="85.8" fill="#000" font-family="Verdana" font-size="12">max_health</text>
	<text x="604" y="102.8" fill="#000" font-family="Verdana" font-size="12">health</text>
	<text x="604" y="119.8" fill="#000" font-family="Verdana" font-size="12">strength</text>
	<text x="604" y="136.8" fill="#000" font-family="Verdana" font-size="12">intelligence</text>
	<text x="604" y="153.8" fill="#000" font-family="Verdana" font-size="12">dexterity</text>
	<text x="604" y="170.8" fill="#000" font-family="Verdana" font-size="12">defense</text>
</g>

<!-- Entity REVIEW -->
<g>
	<g>
		<rect x="105" y="339" width="88" height="25" fill="#fdae61" stroke="#fdae61" stroke-width="0" opacity="1"/>
		<rect x="105" y="364" width="88" height="127" fill="#fee090" stroke="#fee090" stroke-width="0" opacity="1"/>
		<rect x="105" y="339" width="88" height="152" fill="none" stroke="#f46d43" stroke-width="2" opacity="1"/>
		<line x1="105" y1="364" x2="193" y2="364" stroke="#f46d43" stroke-width="1"/>
	</g>
	<text x="124" y="356.75" fill="#000" font-family="Verdana" font-size="12">REVIEW</text>
	<text x="110" y="381.8" fill="#000" font-family="Verdana" font-size="12">code_review</text>
	<line x1="110" y1="384" x2="187" y2="384" stroke="#000" stroke-width="1"/>
	<text x="110" y="398.8" fill="#000" font-family="Verdana" font-size="12">title</text>
	<text x="110" y="415.8" fill="#000" font-family="Verdana" font-size="12">content</text>
	<text x="110" y="432.8" fill="#000" font-family="Verdana" font-size="12">rating</text>
	<text x="110" y="449.8" fill="#000" font-family="Verdana" font-size="12">createdAt</text>
	<text x="110" y="466.8" fill="#000" font-family="Verdana" font-size="12">updatedAt</text>
	<text x="110" y="483.8" fill="#000" font-family="Verdana" font-size="12">user_code</text>
</g>

<!-- Entity USER -->
<g>
	<g>
		<rect x="374" y="347" width="74" height="25" fill="#fdae61" stroke="#fdae61" stroke-width="0" opacity="1"/>
		<rect x="374" y="372" width="74" height="111" fill="#fee090" stroke="#fee090" stroke-width="0" opacity="1"/>
		<rect x="374" y="347" width="74" height="136" fill="none" stroke="#f46d43" stroke-width="2" opacity="1"/>
		<line x1="374" y1="372" x2="448" y2="372" stroke="#f46d43" stroke-width="1"/>
	</g>
	<text x="394" y="364.75" fill="#000" font-family="Verdana" font-size="12">USER</text>
	<text x="379" y="389.8" fill="#000" font-family="Verdana" font-size="12">code_user</text>
	<line x1="379" y1="392" x2="442" y2="392" stroke="#000" stroke-width="1"/>
	<text x="379" y="406.8" fill="#000" font-family="Verdana" font-size="12">email</text>
	<text x="379" y="423.8" fill="#000" font-family="Verdana" font-size="12">password</text>
	<text x="379" y="440.8" fill="#000" font-family="Verdana" font-size="12">role</text>
	<text x="379" y="457.8" fill="#000" font-family="Verdana" font-size="12">pseudo</text>
	<text x="379" y="474.8" fill="#000" font-family="Verdana" font-size="12">avatar</text>
</g>

<!-- Entity HERO -->
<g>
	<g>
		<rect x="599" y="279" width="112" height="25" fill="#fdae61" stroke="#fdae61" stroke-width="0" opacity="1"/>
		<rect x="599" y="304" width="112" height="247" fill="#fee090" stroke="#fee090" stroke-width="0" opacity="1"/>
		<rect x="599" y="279" width="112" height="272" fill="none" stroke="#f46d43" stroke-width="2" opacity="1"/>
		<line x1="599" y1="304" x2="711" y2="304" stroke="#f46d43" stroke-width="1"/>
	</g>
	<text x="638" y="296.75" fill="#000" font-family="Verdana" font-size="12">HERO</text>
	<text x="604" y="321.8" fill="#000" font-family="Verdana" font-size="12">code_hero</text>
	<line x1="604" y1="324" x2="668" y2="324" stroke="#000" stroke-width="1"/>
	<text x="604" y="338.8" fill="#000" font-family="Verdana" font-size="12">name</text>
	<text x="604" y="355.8" fill="#000" font-family="Verdana" font-size="12">max_health</text>
	<text x="604" y="372.8" fill="#000" font-family="Verdana" font-size="12">health</text>
	<text x="604" y="389.8" fill="#000" font-family="Verdana" font-size="12">strength</text>
	<text x="604" y="406.8" fill="#000" font-family="Verdana" font-size="12">intelligence</text>
	<text x="604" y="423.8" fill="#000" font-family="Verdana" font-size="12">dexterity</text>
	<text x="604" y="440.8" fill="#000" font-family="Verdana" font-size="12">defense</text>
	<text x="604" y="457.8" fill="#000" font-family="Verdana" font-size="12">karma</text>
	<text x="604" y="474.8" fill="#000" font-family="Verdana" font-size="12">xp</text>
	<text x="604" y="491.8" fill="#000" font-family="Verdana" font-size="12">picture</text>
	<text x="604" y="508.8" fill="#000" font-family="Verdana" font-size="12">progress</text>
	<text x="604" y="525.8" fill="#000" font-family="Verdana" font-size="12">user_code</text>
	<text x="604" y="542.8" fill="#000" font-family="Verdana" font-size="12">hero_class_code</text>
</g>

<!-- Entity ITEM -->
<g>
	<g>
		<rect x="917" y="322" width="80" height="25" fill="#fdae61" stroke="#fdae61" stroke-width="0" opacity="1"/>
		<rect x="917" y="347" width="80" height="161" fill="#fee090" stroke="#fee090" stroke-width="0" opacity="1"/>
		<rect x="917" y="322" width="80" height="186" fill="none" stroke="#f46d43" stroke-width="2" opacity="1"/>
		<line x1="917" y1="347" x2="997" y2="347" stroke="#f46d43" stroke-width="1"/>
	</g>
	<text x="942" y="339.75" fill="#000" font-family="Verdana" font-size="12">ITEM</text>
	<text x="922" y="364.8" fill="#000" font-family="Verdana" font-size="12">code_item</text>
	<line x1="922" y1="367" x2="986" y2="367" stroke="#000" stroke-width="1"/>
	<text x="922" y="381.8" fill="#000" font-family="Verdana" font-size="12">name</text>
	<text x="922" y="398.8" fill="#000" font-family="Verdana" font-size="12">health</text>
	<text x="922" y="415.8" fill="#000" font-family="Verdana" font-size="12">strength</text>
	<text x="922" y="432.8" fill="#000" font-family="Verdana" font-size="12">intelligence</text>
	<text x="922" y="449.8" fill="#000" font-family="Verdana" font-size="12">dexterity</text>
	<text x="922" y="466.8" fill="#000" font-family="Verdana" font-size="12">defense</text>
	<text x="922" y="483.8" fill="#000" font-family="Verdana" font-size="12">picture</text>
	<text x="922" y="500.8" fill="#000" font-family="Verdana" font-size="12">karma</text>
</g>

<!-- Entity BIOME -->
<g>
	<g>
		<rect x="231" y="804" width="84" height="25" fill="#fdae61" stroke="#fdae61" stroke-width="0" opacity="1"/>
		<rect x="231" y="829" width="84" height="59" fill="#fee090" stroke="#fee090" stroke-width="0" opacity="1"/>
		<rect x="231" y="804" width="84" height="84" fill="none" stroke="#f46d43" stroke-width="2" opacity="1"/>
		<line x1="231" y1="829" x2="315" y2="829" stroke="#f46d43" stroke-width="1"/>
	</g>
	<text x="253" y="821.75" fill="#000" font-family="Verdana" font-size="12">BIOME</text>
	<text x="236" y="846.8" fill="#000" font-family="Verdana" font-size="12">code_biome</text>
	<line x1="236" y1="849" x2="310" y2="849" stroke="#000" stroke-width="1"/>
	<text x="236" y="863.8" fill="#000" font-family="Verdana" font-size="12">name</text>
	<text x="236" y="880.8" fill="#000" font-family="Verdana" font-size="12">difficulty</text>
</g>

<!-- Entity EVENT -->
<g>
	<g>
		<rect x="463" y="770" width="116" height="25" fill="#fdae61" stroke="#fdae61" stroke-width="0" opacity="1"/>
		<rect x="463" y="795" width="116" height="127" fill="#fee090" stroke="#fee090" stroke-width="0" opacity="1"/>
		<rect x="463" y="770" width="116" height="152" fill="none" stroke="#f46d43" stroke-width="2" opacity="1"/>
		<line x1="463" y1="795" x2="579" y2="795" stroke="#f46d43" stroke-width="1"/>
	</g>
	<text x="501" y="787.75" fill="#000" font-family="Verdana" font-size="12">EVENT</text>
	<text x="468" y="812.8" fill="#000" font-family="Verdana" font-size="12">code_event</text>
	<line x1="468" y1="815" x2="539" y2="815" stroke="#000" stroke-width="1"/>
	<text x="468" y="829.8" fill="#000" font-family="Verdana" font-size="12">picture</text>
	<text x="468" y="846.8" fill="#000" font-family="Verdana" font-size="12">title</text>
	<text x="468" y="863.8" fill="#000" font-family="Verdana" font-size="12">description</text>
	<text x="468" y="880.8" fill="#000" font-family="Verdana" font-size="12">opening</text>
	<text x="468" y="897.8" fill="#000" font-family="Verdana" font-size="12">event_type_code</text>
	<text x="468" y="914.8" fill="#000" font-family="Verdana" font-size="12">biome_code</text>
</g>

<!-- Entity NPC -->
<g>
	<g>
		<rect x="917" y="719" width="80" height="25" fill="#fdae61" stroke="#fdae61" stroke-width="0" opacity="1"/>
		<rect x="917" y="744" width="80" height="229" fill="#fee090" stroke="#fee090" stroke-width="0" opacity="1"/>
		<rect x="917" y="719" width="80" height="254" fill="none" stroke="#f46d43" stroke-width="2" opacity="1"/>
		<line x1="917" y1="744" x2="997" y2="744" stroke="#f46d43" stroke-width="1"/>
	</g>
	<text x="944" y="736.75" fill="#000" font-family="Verdana" font-size="12">NPC</text>
	<text x="922" y="761.8" fill="#000" font-family="Verdana" font-size="12">code_npc</text>
	<line x1="922" y1="764" x2="980" y2="764" stroke="#000" stroke-width="1"/>
	<text x="922" y="778.8" fill="#000" font-family="Verdana" font-size="12">name</text>
	<text x="922" y="795.8" fill="#000" font-family="Verdana" font-size="12">description</text>
	<text x="922" y="812.8" fill="#000" font-family="Verdana" font-size="12">health</text>
	<text x="922" y="829.8" fill="#000" font-family="Verdana" font-size="12">strength</text>
	<text x="922" y="846.8" fill="#000" font-family="Verdana" font-size="12">intelligence</text>
	<text x="922" y="863.8" fill="#000" font-family="Verdana" font-size="12">dexterity</text>
	<text x="922" y="880.8" fill="#000" font-family="Verdana" font-size="12">defense</text>
	<text x="922" y="897.8" fill="#000" font-family="Verdana" font-size="12">picture</text>
	<text x="922" y="914.8" fill="#000" font-family="Verdana" font-size="12">is_boss</text>
	<text x="922" y="931.8" fill="#000" font-family="Verdana" font-size="12">hostility</text>
	<text x="922" y="948.8" fill="#000" font-family="Verdana" font-size="12">xp_earned</text>
	<text x="922" y="965.8" fill="#000" font-family="Verdana" font-size="12">race_code</text>
</g>

<!-- Entity RACE -->
<g>
	<g>
		<rect x="1168" y="804" width="78" height="25" fill="#fdae61" stroke="#fdae61" stroke-width="0" opacity="1"/>
		<rect x="1168" y="829" width="78" height="59" fill="#fee090" stroke="#fee090" stroke-width="0" opacity="1"/>
		<rect x="1168" y="804" width="78" height="84" fill="none" stroke="#f46d43" stroke-width="2" opacity="1"/>
		<line x1="1168" y1="829" x2="1246" y2="829" stroke="#f46d43" stroke-width="1"/>
	</g>
	<text x="1190" y="821.75" fill="#000" font-family="Verdana" font-size="12">RACE</text>
	<text x="1173" y="846.8" fill="#000" font-family="Verdana" font-size="12">code_race</text>
	<line x1="1173" y1="849" x2="1236" y2="849" stroke="#000" stroke-width="1"/>
	<text x="1173" y="863.8" fill="#000" font-family="Verdana" font-size="12">name</text>
	<text x="1173" y="880.8" fill="#000" font-family="Verdana" font-size="12">description</text>
</g>

<!-- Entity EVENT_TYPE -->
<g>
	<g>
		<rect x="353" y="1091" width="116" height="25" fill="#fdae61" stroke="#fdae61" stroke-width="0" opacity="1"/>
		<rect x="353" y="1116" width="116" height="43" fill="#fee090" stroke="#fee090" stroke-width="0" opacity="1"/>
		<rect x="353" y="1091" width="116" height="68" fill="none" stroke="#f46d43" stroke-width="2" opacity="1"/>
		<line x1="353" y1="1116" x2="469" y2="1116" stroke="#f46d43" stroke-width="1"/>
	</g>
	<text x="372" y="1108.75" fill="#000" font-family="Verdana" font-size="12">EVENT_TYPE</text>
	<text x="358" y="1133.8" fill="#000" font-family="Verdana" font-size="12">code_event_type</text>
	<line x1="358" y1="1136" x2="463" y2="1136" stroke="#000" stroke-width="1"/>
	<text x="358" y="1150.8" fill="#000" font-family="Verdana" font-size="12">name</text>
</g>

<!-- Entity ENDING -->
<g>
	<g>
		<rect x="597" y="1074" width="116" height="25" fill="#fdae61" stroke="#fdae61" stroke-width="0" opacity="1"/>
		<rect x="597" y="1099" width="116" height="77" fill="#fee090" stroke="#fee090" stroke-width="0" opacity="1"/>
		<rect x="597" y="1074" width="116" height="102" fill="none" stroke="#f46d43" stroke-width="2" opacity="1"/>
		<line x1="597" y1="1099" x2="713" y2="1099" stroke="#f46d43" stroke-width="1"/>
	</g>
	<text x="630" y="1091.75" fill="#000" font-family="Verdana" font-size="12">ENDING</text>
	<text x="602" y="1116.8" fill="#000" font-family="Verdana" font-size="12">code_ending</text>
	<line x1="602" y1="1119" x2="679" y2="1119" stroke="#000" stroke-width="1"/>
	<text x="602" y="1133.8" fill="#000" font-family="Verdana" font-size="12">content</text>
	<text x="602" y="1150.8" fill="#000" font-family="Verdana" font-size="12">event_code</text>
	<text x="602" y="1167.8" fill="#000" font-family="Verdana" font-size="12">event_type_code</text>
</g>

<!-- Entity DIALOGUE -->
<g>
	<g>
		<rect x="1028" y="1083" width="98" height="25" fill="#fdae61" stroke="#fdae61" stroke-width="0" opacity="1"/>
		<rect x="1028" y="1108" width="98" height="59" fill="#fee090" stroke="#fee090" stroke-width="0" opacity="1"/>
		<rect x="1028" y="1083" width="98" height="84" fill="none" stroke="#f46d43" stroke-width="2" opacity="1"/>
		<line x1="1028" y1="1108" x2="1126" y2="1108" stroke="#f46d43" stroke-width="1"/>
	</g>
	<text x="1045" y="1100.75" fill="#000" font-family="Verdana" font-size="12">DIALOGUE</text>
	<text x="1033" y="1125.8" fill="#000" font-family="Verdana" font-size="12">code_dialogue</text>
	<line x1="1033" y1="1128" x2="1121" y2="1128" stroke="#000" stroke-width="1"/>
	<text x="1033" y="1142.8" fill="#000" font-family="Verdana" font-size="12">content</text>
	<text x="1033" y="1159.8" fill="#000" font-family="Verdana" font-size="12">npc_code</text>
</g>

<!-- Entity ANSWER -->
<g>
	<g>
		<rect x="1288" y="1083" width="98" height="25" fill="#fdae61" stroke="#fdae61" stroke-width="0" opacity="1"/>
		<rect x="1288" y="1108" width="98" height="59" fill="#fee090" stroke="#fee090" stroke-width="0" opacity="1"/>
		<rect x="1288" y="1083" width="98" height="84" fill="none" stroke="#f46d43" stroke-width="2" opacity="1"/>
		<line x1="1288" y1="1108" x2="1386" y2="1108" stroke="#f46d43" stroke-width="1"/>
	</g>
	<text x="1310" y="1100.75" fill="#000" font-family="Verdana" font-size="12">ANSWER</text>
	<text x="1293" y="1125.8" fill="#000" font-family="Verdana" font-size="12">code_answer</text>
	<line x1="1293" y1="1128" x2="1373" y2="1128" stroke="#000" stroke-width="1"/>
	<text x="1293" y="1142.8" fill="#000" font-family="Verdana" font-size="12">content</text>
	<text x="1293" y="1159.8" fill="#000" font-family="Verdana" font-size="12">dialogue_code</text>
</g>

<!-- Entity EFFECT -->
<g>
	<g>
		<rect x="1572" y="1023" width="82" height="25" fill="#fdae61" stroke="#fdae61" stroke-width="0" opacity="1"/>
		<rect x="1572" y="1048" width="82" height="179" fill="#fee090" stroke="#fee090" stroke-width="0" opacity="1"/>
		<rect x="1572" y="1023" width="82" height="204" fill="none" stroke="#f46d43" stroke-width="2" opacity="1"/>
		<line x1="1572" y1="1048" x2="1654" y2="1048" stroke="#f46d43" stroke-width="1"/>
	</g>
	<text x="1590" y="1040.75" fill="#000" font-family="Verdana" font-size="12">EFFECT</text>
	<text x="1577" y="1065.8" fill="#000" font-family="Verdana" font-size="12">code_effect</text>
	<line x1="1577" y1="1068" x2="1648" y2="1068" stroke="#000" stroke-width="1"/>
	<text x="1577" y="1082.8" fill="#000" font-family="Verdana" font-size="12">name</text>
	<text x="1577" y="1099.8" fill="#000" font-family="Verdana" font-size="12">description</text>
	<text x="1577" y="1116.8" fill="#000" font-family="Verdana" font-size="12">health</text>
	<text x="1577" y="1133.8" fill="#000" font-family="Verdana" font-size="12">strength</text>
	<text x="1577" y="1150.8" fill="#000" font-family="Verdana" font-size="12">intelligence</text>
	<text x="1577" y="1167.8" fill="#000" font-family="Verdana" font-size="12">dexterity</text>
	<text x="1577" y="1184.8" fill="#000" font-family="Verdana" font-size="12">defense</text>
	<text x="1577" y="1201.8" fill="#000" font-family="Verdana" font-size="12">karma</text>
	<text x="1577" y="1218.8" fill="#000" font-family="Verdana" font-size="12">xp</text>
</g>
</svg>